<?xml version="1.0" encoding="UTF-8" standalone="no"?><svg xmlns="http://www.w3.org/2000/svg" xmlns:xlink="http://www.w3.org/1999/xlink" contentScriptType="application/ecmascript" contentStyleType="text/css" height="570px" preserveAspectRatio="none" style="width:844px;height:570px;" version="1.1" viewBox="0 0 844 570" width="844px" zoomAndPan="magnify"><defs><filter height="300%" id="f1nc9u85mw84ml" width="300%" x="-1" y="-1"><feGaussianBlur result="blurOut" stdDeviation="2.0"/><feColorMatrix in="blurOut" result="blurOut2" type="matrix" values="0 0 0 0 0 0 0 0 0 0 0 0 0 0 0 0 0 0 .4 0"/><feOffset dx="4.0" dy="4.0" in="blurOut2" result="blurOut3"/><feBlend in="SourceGraphic" in2="blurOut3" mode="normal"/></filter></defs><g><!--entity 房客--><ellipse cx="600.5" cy="259" fill="#FEFECE" filter="url(#f1nc9u85mw84ml)" rx="8" ry="8" style="stroke: #A80036; stroke-width: 2.0;"/><path d="M600.5,267 L600.5,294 M587.5,275 L613.5,275 M600.5,294 L587.5,309 M600.5,294 L613.5,309 " fill="none" filter="url(#f1nc9u85mw84ml)" style="stroke: #A80036; stroke-width: 2.0;"/><text fill="#000000" font-family="sans-serif" font-size="14" lengthAdjust="spacingAndGlyphs" textLength="28" x="586.5" y="332.0439">房客</text><!--entity 房东--><ellipse cx="410.5" cy="259" fill="#FEFECE" filter="url(#f1nc9u85mw84ml)" rx="8" ry="8" style="stroke: #A80036; stroke-width: 2.0;"/><path d="M410.5,267 L410.5,294 M397.5,275 L423.5,275 M410.5,294 L397.5,309 M410.5,294 L423.5,309 " fill="none" filter="url(#f1nc9u85mw84ml)" style="stroke: #A80036; stroke-width: 2.0;"/><text fill="#000000" font-family="sans-serif" font-size="14" lengthAdjust="spacingAndGlyphs" textLength="28" x="396.5" y="332.0439">房东</text><!--entity 用户--><ellipse cx="455.5" cy="112" fill="#FEFECE" filter="url(#f1nc9u85mw84ml)" rx="8" ry="8" style="stroke: #A80036; stroke-width: 2.0;"/><path d="M455.5,120 L455.5,147 M442.5,128 L468.5,128 M455.5,147 L442.5,162 M455.5,147 L468.5,162 " fill="none" filter="url(#f1nc9u85mw84ml)" style="stroke: #A80036; stroke-width: 2.0;"/><text fill="#000000" font-family="sans-serif" font-size="14" lengthAdjust="spacingAndGlyphs" textLength="28" x="441.5" y="185.0439">用户</text><ellipse cx="600.598" cy="430.52" fill="#FEFECE" filter="url(#f1nc9u85mw84ml)" rx="42.598" ry="16.52" style="stroke: #A80036; stroke-width: 1.5;"/><text fill="#000000" font-family="sans-serif" font-size="14" lengthAdjust="spacingAndGlyphs" textLength="56" x="572.598" y="436.58">检索民宿</text><ellipse cx="670.598" cy="542.52" fill="#FEFECE" filter="url(#f1nc9u85mw84ml)" rx="42.598" ry="16.52" style="stroke: #A80036; stroke-width: 1.5;"/><text fill="#000000" font-family="sans-serif" font-size="14" lengthAdjust="spacingAndGlyphs" textLength="56" x="642.598" y="548.58">精确检索</text><ellipse cx="550.598" cy="542.52" fill="#FEFECE" filter="url(#f1nc9u85mw84ml)" rx="42.598" ry="16.52" style="stroke: #A80036; stroke-width: 1.5;"/><text fill="#000000" font-family="sans-serif" font-size="14" lengthAdjust="spacingAndGlyphs" textLength="56" x="522.598" y="548.58">模糊检索</text><ellipse cx="368.299" cy="145.02" fill="#FEFECE" filter="url(#f1nc9u85mw84ml)" rx="22.799" ry="16.52" style="stroke: #A80036; stroke-width: 1.5;"/><text fill="#000000" font-family="sans-serif" font-size="14" lengthAdjust="spacingAndGlyphs" textLength="28" x="354.299" y="151.08">注册</text><ellipse cx="267.598" cy="145.02" fill="#FEFECE" filter="url(#f1nc9u85mw84ml)" rx="42.598" ry="16.52" style="stroke: #A80036; stroke-width: 1.5;"/><text fill="#000000" font-family="sans-serif" font-size="14" lengthAdjust="spacingAndGlyphs" textLength="56" x="239.598" y="151.08">邮箱注册</text><ellipse cx="340.4975" cy="24.52" fill="#FEFECE" filter="url(#f1nc9u85mw84ml)" rx="52.4975" ry="16.52" style="stroke: #A80036; stroke-width: 1.5;"/><text fill="#000000" font-family="sans-serif" font-size="14" lengthAdjust="spacingAndGlyphs" textLength="70" x="305.4975" y="30.58">手机号注册</text><ellipse cx="528.299" cy="145.02" fill="#FEFECE" filter="url(#f1nc9u85mw84ml)" rx="22.799" ry="16.52" style="stroke: #A80036; stroke-width: 1.5;"/><text fill="#000000" font-family="sans-serif" font-size="14" lengthAdjust="spacingAndGlyphs" textLength="28" x="514.299" y="151.08">登录</text><ellipse cx="470.598" cy="24.52" fill="#FEFECE" filter="url(#f1nc9u85mw84ml)" rx="42.598" ry="16.52" style="stroke: #A80036; stroke-width: 1.5;"/><text fill="#000000" font-family="sans-serif" font-size="14" lengthAdjust="spacingAndGlyphs" textLength="56" x="442.598" y="30.58">订单管理</text><ellipse cx="765.598" cy="430.52" fill="#FEFECE" filter="url(#f1nc9u85mw84ml)" rx="42.598" ry="16.52" style="stroke: #A80036; stroke-width: 1.5;"/><text fill="#000000" font-family="sans-serif" font-size="14" lengthAdjust="spacingAndGlyphs" textLength="56" x="737.598" y="436.58">预定民宿</text><ellipse cx="410.598" cy="430.52" fill="#FEFECE" filter="url(#f1nc9u85mw84ml)" rx="42.598" ry="16.52" style="stroke: #A80036; stroke-width: 1.5;"/><text fill="#000000" font-family="sans-serif" font-size="14" lengthAdjust="spacingAndGlyphs" textLength="56" x="382.598" y="436.58">上架民宿</text><ellipse cx="248.598" cy="292.02" fill="#FEFECE" filter="url(#f1nc9u85mw84ml)" rx="42.598" ry="16.52" style="stroke: #A80036; stroke-width: 1.5;"/><text fill="#000000" font-family="sans-serif" font-size="14" lengthAdjust="spacingAndGlyphs" textLength="56" x="220.598" y="298.08">民宿管理</text><ellipse cx="790.598" cy="542.52" fill="#FEFECE" filter="url(#f1nc9u85mw84ml)" rx="42.598" ry="16.52" style="stroke: #A80036; stroke-width: 1.5;"/><text fill="#000000" font-family="sans-serif" font-size="14" lengthAdjust="spacingAndGlyphs" textLength="56" x="762.598" y="548.58">优惠预订</text><ellipse cx="676.598" cy="145.02" fill="#FEFECE" filter="url(#f1nc9u85mw84ml)" rx="42.598" ry="16.52" style="stroke: #A80036; stroke-width: 1.5;"/><text fill="#000000" font-family="sans-serif" font-size="14" lengthAdjust="spacingAndGlyphs" textLength="56" x="648.598" y="151.08">找回密码</text><ellipse cx="410.397" cy="542.52" fill="#FEFECE" filter="url(#f1nc9u85mw84ml)" rx="62.397" ry="16.52" style="stroke: #A80036; stroke-width: 1.5;"/><text fill="#000000" font-family="sans-serif" font-size="14" lengthAdjust="spacingAndGlyphs" textLength="84" x="368.397" y="548.58">房东信息审核</text><ellipse cx="250.397" cy="542.52" fill="#FEFECE" filter="url(#f1nc9u85mw84ml)" rx="62.397" ry="16.52" style="stroke: #A80036; stroke-width: 1.5;"/><text fill="#000000" font-family="sans-serif" font-size="14" lengthAdjust="spacingAndGlyphs" textLength="84" x="208.397" y="548.58">房源信息提交</text><ellipse cx="48.598" cy="430.52" fill="#FEFECE" filter="url(#f1nc9u85mw84ml)" rx="42.598" ry="16.52" style="stroke: #A80036; stroke-width: 1.5;"/><text fill="#000000" font-family="sans-serif" font-size="14" lengthAdjust="spacingAndGlyphs" textLength="56" x="20.598" y="436.58">修改价格</text><ellipse cx="188.397" cy="430.52" fill="#FEFECE" filter="url(#f1nc9u85mw84ml)" rx="62.397" ry="16.52" style="stroke: #A80036; stroke-width: 1.5;"/><text fill="#000000" font-family="sans-serif" font-size="14" lengthAdjust="spacingAndGlyphs" textLength="84" x="146.397" y="436.58">更新房源信息</text><ellipse cx="309.299" cy="430.52" fill="#FEFECE" filter="url(#f1nc9u85mw84ml)" rx="22.799" ry="16.52" style="stroke: #A80036; stroke-width: 1.5;"/><text fill="#000000" font-family="sans-serif" font-size="14" lengthAdjust="spacingAndGlyphs" textLength="28" x="295.299" y="436.58">下架</text><!--reverse link 用户 to 房客--><path d="M483.412,183.388 C484.77,184.966 486.136,186.51 487.5,188 C519.946,223.436 562.999,260.252 585.441,278.783 " fill="none" id="用户&lt;-房客" style="stroke: #A80036; stroke-width: 1.0;"/><polygon fill="none" points="477.759,187.527,470.734,167.535,488.693,178.783,477.759,187.527" style="stroke: #A80036; stroke-width: 1.0;"/><!--reverse link 用户 to 房东--><path d="M436.425,207.463 C432.095,221.417 427.591,235.93 423.575,248.868 " fill="none" id="用户&lt;-房东" style="stroke: #A80036; stroke-width: 1.0;"/><polygon fill="none" points="429.75,205.356,442.363,188.33,443.121,209.506,429.75,205.356" style="stroke: #A80036; stroke-width: 1.0;"/><!--reverse link 检索民宿 to 精确检索--><path d="M621.101,463.8736 C634.235,484.5114 650.644,510.2971 660.849,526.3349 " fill="none" id="检索民宿&lt;-精确检索" style="stroke: #A80036; stroke-width: 1.0;"/><polygon fill="none" points="615.065,467.4264,610.233,446.795,626.876,459.9101,615.065,467.4264" style="stroke: #A80036; stroke-width: 1.0;"/><!--reverse link 检索民宿 to 模糊检索--><path d="M585.26,465.0288 C576.039,485.3132 564.718,510.2195 557.554,525.9803 " fill="none" id="检索民宿&lt;-模糊检索" style="stroke: #A80036; stroke-width: 1.0;"/><polygon fill="none" points="578.899,462.1057,593.548,446.795,591.644,467.899,578.899,462.1057" style="stroke: #A80036; stroke-width: 1.0;"/><!--link 邮箱注册 to 注册--><path d="M310.109,145 C315.14,145 320.171,145 325.202,145 " fill="none" id="邮箱注册-&gt;注册" style="stroke: #A80036; stroke-width: 1.0;"/><polygon fill="none" points="325.235,138,345.235,145,325.235,152,325.235,138" style="stroke: #A80036; stroke-width: 1.0;"/><!--link 手机号注册 to 注册--><path d="M344.161,40.992 C348.206,58.113 354.854,86.249 360.181,108.793 " fill="none" id="手机号注册-&gt;注册" style="stroke: #A80036; stroke-width: 1.0;"/><polygon fill="none" points="367.052,107.431,364.839,128.504,353.427,110.65,367.052,107.431" style="stroke: #A80036; stroke-width: 1.0;"/><!--reverse link 注册 to 用户--><path d="M396.905,145 C411.279,145 425.653,145 440.026,145 " fill="none" id="注册&lt;-用户" style="stroke: #A80036; stroke-width: 1.0;"/><polygon fill="#A80036" points="391.609,145,400.609,149,396.609,145,400.609,141,391.609,145" style="stroke: #A80036; stroke-width: 1.0;"/><!--link 用户 to 登录--><path d="M470.613,145 C480.498,145 490.382,145 500.267,145 " fill="none" id="用户-&gt;登录" style="stroke: #A80036; stroke-width: 1.0;"/><polygon fill="#A80036" points="505.436,145,496.436,141,500.436,145,496.436,149,505.436,145" style="stroke: #A80036; stroke-width: 1.0;"/><!--reverse link 订单管理 to 用户--><path d="M467.91,45.958 C465.963,61.344 463.227,82.957 460.819,101.976 " fill="none" id="订单管理&lt;-用户" style="stroke: #A80036; stroke-width: 1.0;"/><polygon fill="#A80036" points="468.539,40.992,463.4392,49.4177,467.9104,45.9523,471.3758,50.4235,468.539,40.992" style="stroke: #A80036; stroke-width: 1.0;"/><!--link 房客 to 预定民宿--><path d="M615.727,305.597 C645.319,330.078 710.641,384.117 744.393,412.039 " fill="none" id="房客-&gt;预定民宿" style="stroke: #A80036; stroke-width: 1.0;"/><polygon fill="#A80036" points="748.348,415.31,743.9628,406.4913,744.4953,412.123,738.8636,412.6556,748.348,415.31" style="stroke: #A80036; stroke-width: 1.0;"/><!--link 房客 to 检索民宿--><path d="M600.5,335.068 C600.5,359.413 600.5,388.996 600.5,408.489 " fill="none" id="房客-&gt;检索民宿" style="stroke: #A80036; stroke-width: 1.0;"/><polygon fill="#A80036" points="600.5,413.706,604.5,404.706,600.5,408.706,596.5,404.706,600.5,413.706" style="stroke: #A80036; stroke-width: 1.0;"/><!--link 房东 to 上架民宿--><path d="M410.5,335.068 C410.5,359.413 410.5,388.996 410.5,408.489 " fill="none" id="房东-&gt;上架民宿" style="stroke: #A80036; stroke-width: 1.0;"/><polygon fill="#A80036" points="410.5,413.706,414.5,404.706,410.5,408.706,406.5,404.706,410.5,413.706" style="stroke: #A80036; stroke-width: 1.0;"/><!--reverse link 民宿管理 to 房东--><path d="M296.491,292 C329.369,292 362.246,292 395.123,292 " fill="none" id="民宿管理&lt;-房东" style="stroke: #A80036; stroke-width: 1.0;"/><polygon fill="#A80036" points="291.215,292,300.215,296,296.215,292,300.215,288,291.215,292" style="stroke: #A80036; stroke-width: 1.0;"/><!--link 预定民宿 to 优惠预订--><path d="M769.082,447.26 C773.482,466.6193 780.957,499.5118 785.811,520.868 " fill="none" id="预定民宿-&gt;优惠预订" style="stroke: #A80036; stroke-width: 1.0; stroke-dasharray: 7.0,7.0;"/><polygon fill="#A80036" points="786.925,525.7689,788.8309,516.1062,785.8169,520.8932,781.0298,517.8792,786.925,525.7689" style="stroke: #A80036; stroke-width: 1.0;"/><text fill="#000000" font-family="sans-serif" font-size="13" lengthAdjust="spacingAndGlyphs" textLength="46" x="780.5" y="492.8979">extends</text><!--link 登录 to 找回密码--><path d="M551.625,145 C572.204,145 602.956,145 628.793,145 " fill="none" id="登录-&gt;找回密码" style="stroke: #A80036; stroke-width: 1.0; stroke-dasharray: 7.0,7.0;"/><polygon fill="#A80036" points="633.891,145,624.891,141,628.891,145,624.891,149,633.891,145" style="stroke: #A80036; stroke-width: 1.0;"/><text fill="#000000" font-family="sans-serif" font-size="13" lengthAdjust="spacingAndGlyphs" textLength="46" x="569.75" y="138.8979">extends</text><!--link 上架民宿 to 房东信息审核--><path d="M410.5,447.26 C410.5,466.5376 410.5,499.2345 410.5,520.597 " fill="none" id="上架民宿-&gt;房东信息审核" style="stroke: #A80036; stroke-width: 1.0; stroke-dasharray: 7.0,7.0;"/><polygon fill="#A80036" points="410.5,525.7689,414.5,516.7689,410.5,520.7689,406.5,516.7689,410.5,525.7689" style="stroke: #A80036; stroke-width: 1.0;"/><text fill="#000000" font-family="sans-serif" font-size="13" lengthAdjust="spacingAndGlyphs" textLength="41" x="411.5" y="492.8979">include</text><!--link 上架民宿 to 房源信息提交--><path d="M390.559,445.209 C361.537,465.1619 307.664,502.1999 275.858,524.0662 " fill="none" id="上架民宿-&gt;房源信息提交" style="stroke: #A80036; stroke-width: 1.0; stroke-dasharray: 7.0,7.0;"/><polygon fill="#A80036" points="271.712,526.9168,281.3944,525.114,275.8321,524.084,276.862,518.5217,271.712,526.9168" style="stroke: #A80036; stroke-width: 1.0;"/><text fill="#000000" font-family="sans-serif" font-size="13" lengthAdjust="spacingAndGlyphs" textLength="41" x="341.5" y="492.8979">include</text><!--link 民宿管理 to 修改价格--><path d="M228.592,306.587 C191.699,331.767 112.834,385.592 72.8376,412.89 " fill="none" id="民宿管理-&gt;修改价格" style="stroke: #A80036; stroke-width: 1.0; stroke-dasharray: 7.0,7.0;"/><polygon fill="#A80036" points="68.6243,415.765,78.3129,413.9956,72.7542,412.9465,73.8033,407.3878,68.6243,415.765" style="stroke: #A80036; stroke-width: 1.0;"/><text fill="#000000" font-family="sans-serif" font-size="13" lengthAdjust="spacingAndGlyphs" textLength="41" x="144.5" y="380.8979">include</text><!--link 民宿管理 to 更新房源信息--><path d="M241.734,308.393 C230.886,333.073 209.594,381.512 197.483,409.063 " fill="none" id="民宿管理-&gt;更新房源信息" style="stroke: #A80036; stroke-width: 1.0; stroke-dasharray: 7.0,7.0;"/><polygon fill="#A80036" points="195.333,413.954,202.6168,407.3248,197.3453,409.3768,195.2933,404.1052,195.333,413.954" style="stroke: #A80036; stroke-width: 1.0;"/><text fill="#000000" font-family="sans-serif" font-size="13" lengthAdjust="spacingAndGlyphs" textLength="41" x="218.5" y="380.8979">include</text><!--link 民宿管理 to 下架--><path d="M255.379,308.393 C266.467,333.204 288.285,382.028 300.563,409.501 " fill="none" id="民宿管理-&gt;下架" style="stroke: #A80036; stroke-width: 1.0; stroke-dasharray: 7.0,7.0;"/><polygon fill="#A80036" points="302.739,414.372,302.7184,404.5232,300.6988,409.8072,295.4147,407.7875,302.739,414.372" style="stroke: #A80036; stroke-width: 1.0;"/><text fill="#000000" font-family="sans-serif" font-size="13" lengthAdjust="spacingAndGlyphs" textLength="41" x="289.5" y="380.8979">include</text><!--
@startuml 用例图

actor 房客
actor 房东
actor 用户

用户 <|- - 房客
用户 <|- - 房东

(检索民宿) <|- - (精确检索)
(检索民宿) <|- - (模糊检索)

(注册) <|-left- (邮箱注册)
(注册) <|-up- (手机号注册)

:用户: -left-> (注册)
:用户: -right-> (登录)
:用户: -up-> (订单管理)

:房客: - -> (预定民宿)
:房客: - -> (检索民宿)

:房东: - -> (上架民宿)
:房东: -left-> (民宿管理)

(预定民宿) ..> (优惠预订) : extends
(登录) .> (找回密码) : extends

(上架民宿) ..> (房东信息审核) : include
(上架民宿) ..> (房源信息提交) : include

(民宿管理) ..> (修改价格) : include
(民宿管理) ..> (更新房源信息) : include
(民宿管理) ..> (下架) : include


@enduml

PlantUML version 1.2019.09(Tue Aug 27 00:19:51 CST 2019)
(GPL source distribution)
Java Runtime: Java(TM) SE Runtime Environment
JVM: Java HotSpot(TM) 64-Bit Server VM
Java Version: 1.8.0_191-b12
Operating System: Windows 10
OS Version: 10.0
Default Encoding: GBK
Language: zh
Country: CN
--></g></svg>